<svg viewBox="0 0 1024 1024" xmlns="http://www.w3.org/2000/svg" width="60" height="60"><path d="M346 139.7H180c-45.7 0-83 37.3-83 83v166c0 45.7 37.3 83 83 83h166c45.7 0 83-37.3 83-83v-166c0-45.6-37.3-83-83-83z m41.5 249c0 22.9-18.6 41.5-41.5 41.5H180c-22.9 0-41.5-18.6-41.5-41.5v-166c0-22.9 18.6-41.5 41.5-41.5h166c22.9 0 41.5 18.6 41.5 41.5v166zM346 595H180c-45.7 0-83 37.3-83 83v166c0 45.7 37.3 83 83 83h166c45.7 0 83-37.3 83-83V678c0-45.7-37.3-83-83-83z m41.5 249c0 22.9-18.6 41.5-41.5 41.5H180c-22.9 0-41.5-18.6-41.5-41.5V678c0-22.9 18.6-41.5 41.5-41.5h166c22.9 0 41.5 18.6 41.5 41.5v166zM801.3 595h-166c-45.6 0-83 37.3-83 83v166c0 45.7 37.4 83 83 83h166c45.7 0 83-37.3 83-83V678c0-45.7-37.4-83-83-83z m41.5 249c0 22.9-18.6 41.5-41.5 41.5h-166c-22.9 0-41.5-18.6-41.5-41.5V678c0-22.9 18.6-41.5 41.5-41.5h166c22.9 0 41.5 18.6 41.5 41.5v166zM902.8 247.1L776.9 121.2c-32.3-32.3-85.1-32.3-117.4 0L533.7 247.1c-32.3 32.3-32.3 85.1 0 117.4l125.8 125.8c32.3 32.3 85.1 32.3 117.4 0l125.8-125.8c32.4-32.3 32.4-85.2 0.1-117.4z m-31.5 88L747.6 458.8c-16.2 16.2-42.5 16.2-58.7 0L565.2 335.1c-16.2-16.2-16.2-42.5 0-58.7l123.7-123.7c16.2-16.2 42.5-16.2 58.7 0l123.7 123.7c16.2 16.2 16.2 42.5 0 58.7z"></path></svg>