<svg t="1664986015997" class="icon" viewBox="0 0 1025 1024" version="1.1" xmlns="http://www.w3.org/2000/svg" p-id="21873" width="60" height="60"><path d="M191.263056 767.598333c0 35.389673-28.636551 64.088648-63.962775 64.088648-35.452097 0-64.088648-28.698976-64.088648-64.088648 0-35.2638 28.636551-63.964822 64.088648-63.964822C162.626505 703.633511 191.263056 732.334533 191.263056 767.598333z" p-id="21874"></path><path d="M319.315503 703.633511l576.232941 0 0 128.05347-576.232941 0 0-128.05347Z" p-id="21875"></path><path d="M383.34275 767.598333c0 35.389673-28.636551 64.088648-63.965846 64.088648-35.451074 0-64.087625-28.698976-64.087625-64.088648 0-35.2638 28.636551-63.964822 64.087625-63.964822C354.706199 703.633511 383.34275 732.334533 383.34275 767.598333z" p-id="21876"></path><path d="M959.573645 767.598333c0 35.389673-28.634504 64.088648-63.961752 64.088648-35.452097 0-64.088648-28.698976-64.088648-64.088648 0-35.2638 28.636551-63.964822 64.088648-63.964822C930.93914 703.633511 959.573645 732.334533 959.573645 767.598333z" p-id="21877"></path><path d="M191.263056 511.493439c0 35.391719-28.636551 64.088648-63.962775 64.088648-35.452097 0-64.088648-28.696929-64.088648-64.088648 0-35.265847 28.636551-63.963799 64.088648-63.963799C162.626505 447.52964 191.263056 476.227593 191.263056 511.493439z" p-id="21878"></path><path d="M319.315503 447.52964l576.232941 0 0 128.052447-576.232941 0 0-128.052447Z" p-id="21879"></path><path d="M383.34275 511.493439c0 35.391719-28.636551 64.088648-63.965846 64.088648-35.451074 0-64.087625-28.696929-64.087625-64.088648 0-35.265847 28.636551-63.963799 64.087625-63.963799C354.706199 447.52964 383.34275 476.227593 383.34275 511.493439z" p-id="21880"></path><path d="M959.573645 511.493439c0 35.391719-28.634504 64.088648-63.961752 64.088648-35.452097 0-64.088648-28.696929-64.088648-64.088648 0-35.265847 28.636551-63.963799 64.088648-63.963799C930.93914 447.52964 959.573645 476.227593 959.573645 511.493439z" p-id="21881"></path><path d="M191.263056 255.388545c0 35.389673-28.636551 64.088648-63.962775 64.088648-35.452097 0-64.088648-28.698976-64.088648-64.088648 0-35.264823 28.636551-63.960729 64.088648-63.960729C162.626505 191.426793 191.263056 220.122699 191.263056 255.388545z" p-id="21882"></path><path d="M319.315503 191.426793l576.232941 0 0 128.0504-576.232941 0 0-128.0504Z" p-id="21883"></path><path d="M383.34275 255.388545c0 35.389673-28.636551 64.088648-63.965846 64.088648-35.451074 0-64.087625-28.698976-64.087625-64.088648 0-35.264823 28.636551-63.960729 64.087625-63.960729C354.706199 191.426793 383.34275 220.122699 383.34275 255.388545z" p-id="21884"></path><path d="M959.573645 255.388545c0 35.389673-28.634504 64.088648-63.961752 64.088648-35.452097 0-64.088648-28.698976-64.088648-64.088648 0-35.264823 28.636551-63.960729 64.088648-63.960729C930.93914 191.426793 959.573645 220.122699 959.573645 255.388545z" p-id="21885"></path></svg>