<svg viewBox="0 0 1024 1024" xmlns="http://www.w3.org/2000/svg" width="60" height="60"><path d="M906.3 366.8h-332c-11.5 0-20.8 9.3-20.8 20.8s9.3 20.8 20.8 20.8h332c11.5 0 20.8-9.3 20.8-20.8-0.1-11.6-9.4-20.8-20.8-20.8zM574.3 200.8h332c11.5 0 20.8-9.3 20.8-20.8s-9.3-20.8-20.8-20.8h-332c-11.5 0-20.8 9.3-20.8 20.8s9.3 20.8 20.8 20.8zM387.5 97H180c-45.7 0-83 37.3-83 83v207.5c0 45.7 37.3 83 83 83h207.5c45.7 0 83-37.3 83-83V180c0-45.7-37.3-83-83-83zM429 387.5c0 22.9-18.6 41.5-41.5 41.5H180c-22.9 0-41.5-18.6-41.5-41.5V180c0-22.9 18.6-41.5 41.5-41.5h207.5c22.9 0 41.5 18.6 41.5 41.5v207.5zM906.3 823.3h-332c-11.5 0-20.8 9.3-20.8 20.8s9.3 20.8 20.8 20.8h332c11.5 0 20.8-9.3 20.8-20.8-0.1-11.6-9.4-20.8-20.8-20.8zM906.3 615.8h-332c-11.5 0-20.8 9.3-20.8 20.8s9.3 20.8 20.8 20.8h332c11.5 0 20.8-9.3 20.8-20.8-0.1-11.6-9.4-20.8-20.8-20.8zM387.5 553.5H180c-45.7 0-83 37.3-83 83V844c0 45.7 37.3 83 83 83h207.5c45.7 0 83-37.3 83-83V636.5c0-45.7-37.3-83-83-83zM429 844c0 22.9-18.6 41.5-41.5 41.5H180c-22.9 0-41.5-18.6-41.5-41.5V636.5c0-22.9 18.6-41.5 41.5-41.5h207.5c22.9 0 41.5 18.6 41.5 41.5V844z"></path></svg>