<svg t="1664986179894" class="icon" viewBox="0 0 1024 1024" version="1.1" xmlns="http://www.w3.org/2000/svg" p-id="24116" width="60" height="60"><path d="M573.7472 142.336H450.2528c-17.3056 0-30.9248 13.6192-30.9248 30.9248s13.6192 30.9248 30.9248 30.9248h123.5968c17.3056 0 30.9248-13.6192 30.9248-30.9248S591.0528 142.336 573.7472 142.336zM326.656 142.336h-86.528c-54.4768 0.2048-98.7136 44.3392-98.816 98.816V327.68c0 17.3056 13.6192 30.9248 30.9248 30.9248s30.9248-13.6192 30.9248-30.9248v-86.528c0-20.3776 16.6912-37.0688 37.0688-37.0688H326.656c17.3056 0 30.9248-13.6192 30.9248-30.9248S343.9616 142.336 326.656 142.336zM172.2368 605.696c17.3056 0 30.9248-13.6192 30.9248-30.9248V451.2768c0-17.3056-13.6192-30.9248-30.9248-30.9248S141.312 433.9712 141.312 451.2768v123.5968c0 17.2032 13.6192 30.8224 30.9248 30.8224zM326.656 821.9648h-86.528c-20.3776 0-37.0688-16.6912-37.0688-37.0688V698.368c0-17.3056-13.6192-30.9248-30.9248-30.9248S141.312 681.0624 141.312 698.368v86.528c0 54.3744 44.4416 98.816 98.816 98.816H326.656c17.3056 0 30.9248-13.6192 30.9248-30.9248s-13.6192-30.8224-30.9248-30.8224z m247.0912 0H450.2528c-17.3056 0-30.9248 13.6192-30.9248 30.9248s13.6192 30.9248 30.9248 30.9248h123.5968c17.3056 0 30.9248-13.6192 30.9248-30.9248s-13.7216-30.9248-31.0272-30.9248z m278.016-154.5216c-17.3056 0-30.9248 13.6192-30.9248 30.9248v86.528c0 20.3776-16.6912 37.0688-37.0688 37.0688H697.344c-17.3056 0-30.9248 13.6192-30.9248 30.9248S680.0384 883.712 697.344 883.712h86.528c54.3744 0 98.816-44.4416 98.816-98.816V698.368c0-17.3056-13.6192-30.9248-30.9248-30.9248z m0-247.0912c-17.3056 0-30.9248 13.6192-30.9248 30.9248v123.5968c0 17.3056 13.6192 30.9248 30.9248 30.9248s30.9248-13.6192 30.9248-30.9248V451.2768c0-17.3056-13.6192-30.9248-30.9248-30.9248zM783.872 142.336H697.344c-17.3056 0-30.9248 13.6192-30.9248 30.9248s13.6192 30.9248 30.9248 30.9248h86.528c20.3776 0 37.0688 16.6912 37.0688 37.0688V327.68c0 17.3056 13.6192 30.9248 30.9248 30.9248S882.688 344.9856 882.688 327.68v-86.528c0-54.3744-44.4416-98.816-98.816-98.816z" p-id="24117"></path></svg>