<svg viewBox="0 0 1024 1024" xmlns="http://www.w3.org/2000/svg" width="60" height="60"><path d="M935.098861 949.054471l-65.047063-618.795542a60.52205 60.52205 0 0 0-59.107984-54.300157h-118.49878V195.074163a187.788044 187.788044 0 1 0-375.293274 0V275.958772H207.703006a60.804864 60.804864 0 0 0-59.390797 54.300157L82.982332 949.054471a72.683023 72.683023 0 0 0 16.403173 56.562663 56.562664 56.562664 0 0 0 41.290744 18.382866h735.314629a56.562664 56.562664 0 0 0 41.290744-18.382866 73.814276 73.814276 0 0 0 16.685986-56.562663z m-452.501309-222.856896l-28.281332-28.281331-56.562664-56.562664 28.281332-28.281332 56.562664 56.562664 113.125327-113.125328 28.281332 28.281332zM648.60897 276.241586H361.553451V195.074163a143.103539 143.103539 0 1 1 287.055519 0z" p-id="3052"></path></svg>