<svg t="1664986093052" class="icon" viewBox="0 0 1024 1024" version="1.1" xmlns="http://www.w3.org/2000/svg" p-id="22626" width="60" height="60"><path d="M766.8736 135.2704H256.512c-66.8672 0-121.0368 54.1696-121.0368 121.0368v511.3856c0 66.8672 54.1696 121.0368 121.0368 121.0368h510.3616c66.8672 0 121.0368-54.1696 121.0368-121.0368V256.3072c-0.1024-66.8672-54.272-121.0368-121.0368-121.0368zM325.3248 288.5632c44.032 0 79.872 35.6352 79.872 79.872s-35.6352 79.9744-79.872 79.9744c-44.032 0-79.872-35.6352-79.872-79.9744 0.2048-44.032 35.84-79.872 79.872-79.872zM192.3072 814.6944c0-0.1024 43.6224-265.3184 130.4576-265.3184 86.9376 0 76.5952 74.1376 141.824 74.1376 65.4336 0 92.3648-228.2496 180.224-228.2496s186.1632 419.6352 186.1632 419.6352H192.3072v-0.2048zM34.816 358.2976v307.4048C34.816 692.224 56.32 713.728 82.8416 713.728H111.616V310.272H82.8416C56.32 310.272 34.816 331.776 34.816 358.2976zM941.1584 310.272H912.384v403.3536h28.7744c26.5216 0 48.0256-21.504 48.0256-48.0256V358.4c0-26.624-21.504-48.128-48.0256-48.128z" p-id="22627"></path></svg>